<mxfile host="app.diagrams.net" agent="Mozilla/5.0 (Windows NT 10.0; Win64; x64) AppleWebKit/537.36 (KHTML, like Gecko) Chrome/128.0.0.0 Safari/537.36" version="24.7.12">
  <diagram name="Page-1" id="qDtt5_w0MwEHDzukyG0I">
    <mxGraphModel dx="925" dy="476" grid="1" gridSize="10" guides="1" tooltips="1" connect="1" arrows="1" fold="1" page="1" pageScale="1" pageWidth="3300" pageHeight="4681" math="0" shadow="0">
      <root>
        <mxCell id="0" />
        <mxCell id="1" parent="0" />
        <mxCell id="lOQw1_V1_3Y-CnLFvXQK-3" value="" style="ellipse;html=1;shape=startState;fillColor=#000000;strokeColor=#ff0000;" vertex="1" parent="1">
          <mxGeometry x="700" y="80" width="30" height="30" as="geometry" />
        </mxCell>
        <mxCell id="lOQw1_V1_3Y-CnLFvXQK-4" value="" style="edgeStyle=orthogonalEdgeStyle;html=1;verticalAlign=bottom;endArrow=open;endSize=8;strokeColor=#ff0000;rounded=0;" edge="1" source="lOQw1_V1_3Y-CnLFvXQK-3" parent="1">
          <mxGeometry relative="1" as="geometry">
            <mxPoint x="715" y="170" as="targetPoint" />
          </mxGeometry>
        </mxCell>
        <mxCell id="lOQw1_V1_3Y-CnLFvXQK-14" style="edgeStyle=orthogonalEdgeStyle;rounded=0;orthogonalLoop=1;jettySize=auto;html=1;exitX=1;exitY=0.5;exitDx=0;exitDy=0;entryX=0;entryY=0.5;entryDx=0;entryDy=0;" edge="1" parent="1" source="lOQw1_V1_3Y-CnLFvXQK-5" target="lOQw1_V1_3Y-CnLFvXQK-8">
          <mxGeometry relative="1" as="geometry" />
        </mxCell>
        <mxCell id="lOQw1_V1_3Y-CnLFvXQK-5" value="Client Loan Application" style="rounded=1;whiteSpace=wrap;html=1;absoluteArcSize=1;arcSize=14;strokeWidth=2;" vertex="1" parent="1">
          <mxGeometry x="632.5" y="170" width="165" height="100" as="geometry" />
        </mxCell>
        <mxCell id="lOQw1_V1_3Y-CnLFvXQK-8" value="Loan Approval" style="rounded=1;whiteSpace=wrap;html=1;absoluteArcSize=1;arcSize=14;strokeWidth=2;" vertex="1" parent="1">
          <mxGeometry x="870" y="170" width="165" height="100" as="geometry" />
        </mxCell>
        <mxCell id="lOQw1_V1_3Y-CnLFvXQK-15" style="edgeStyle=orthogonalEdgeStyle;rounded=0;orthogonalLoop=1;jettySize=auto;html=1;exitX=0.5;exitY=1;exitDx=0;exitDy=0;" edge="1" parent="1" source="lOQw1_V1_3Y-CnLFvXQK-9">
          <mxGeometry relative="1" as="geometry">
            <mxPoint x="1202.7419354838707" y="350" as="targetPoint" />
          </mxGeometry>
        </mxCell>
        <mxCell id="lOQw1_V1_3Y-CnLFvXQK-9" value="Disbursements of&amp;nbsp; funds to client" style="rounded=1;whiteSpace=wrap;html=1;absoluteArcSize=1;arcSize=14;strokeWidth=2;" vertex="1" parent="1">
          <mxGeometry x="1120" y="170" width="165" height="100" as="geometry" />
        </mxCell>
        <mxCell id="lOQw1_V1_3Y-CnLFvXQK-12" style="edgeStyle=orthogonalEdgeStyle;rounded=0;orthogonalLoop=1;jettySize=auto;html=1;exitX=1;exitY=0.5;exitDx=0;exitDy=0;" edge="1" parent="1">
          <mxGeometry relative="1" as="geometry">
            <mxPoint x="1117" y="219.68" as="targetPoint" />
            <mxPoint x="1035" y="219.68" as="sourcePoint" />
          </mxGeometry>
        </mxCell>
        <mxCell id="lOQw1_V1_3Y-CnLFvXQK-17" style="edgeStyle=orthogonalEdgeStyle;rounded=0;orthogonalLoop=1;jettySize=auto;html=1;exitX=0;exitY=0.5;exitDx=0;exitDy=0;" edge="1" parent="1" source="lOQw1_V1_3Y-CnLFvXQK-16">
          <mxGeometry relative="1" as="geometry">
            <mxPoint x="1040" y="400.1290322580645" as="targetPoint" />
          </mxGeometry>
        </mxCell>
        <mxCell id="lOQw1_V1_3Y-CnLFvXQK-16" value="Payments collection" style="rounded=1;whiteSpace=wrap;html=1;absoluteArcSize=1;arcSize=14;strokeWidth=2;" vertex="1" parent="1">
          <mxGeometry x="1120" y="350" width="165" height="100" as="geometry" />
        </mxCell>
        <mxCell id="lOQw1_V1_3Y-CnLFvXQK-19" style="edgeStyle=orthogonalEdgeStyle;rounded=0;orthogonalLoop=1;jettySize=auto;html=1;exitX=0;exitY=0.5;exitDx=0;exitDy=0;" edge="1" parent="1" source="lOQw1_V1_3Y-CnLFvXQK-18">
          <mxGeometry relative="1" as="geometry">
            <mxPoint x="800" y="400.1290322580645" as="targetPoint" />
          </mxGeometry>
        </mxCell>
        <mxCell id="lOQw1_V1_3Y-CnLFvXQK-18" value="Reporting" style="rounded=1;whiteSpace=wrap;html=1;absoluteArcSize=1;arcSize=14;strokeWidth=2;" vertex="1" parent="1">
          <mxGeometry x="874" y="350" width="165" height="100" as="geometry" />
        </mxCell>
        <mxCell id="lOQw1_V1_3Y-CnLFvXQK-21" value="" style="ellipse;html=1;shape=endState;fillColor=#000000;strokeColor=#ff0000;" vertex="1" parent="1">
          <mxGeometry x="770" y="385" width="30" height="30" as="geometry" />
        </mxCell>
        <mxCell id="lOQw1_V1_3Y-CnLFvXQK-22" value="End" style="text;html=1;align=center;verticalAlign=middle;resizable=0;points=[];autosize=1;strokeColor=none;fillColor=none;" vertex="1" parent="1">
          <mxGeometry x="730" y="385" width="40" height="30" as="geometry" />
        </mxCell>
        <mxCell id="lOQw1_V1_3Y-CnLFvXQK-23" value="Start" style="text;html=1;align=center;verticalAlign=middle;resizable=0;points=[];autosize=1;strokeColor=none;fillColor=none;" vertex="1" parent="1">
          <mxGeometry x="690" y="58" width="50" height="30" as="geometry" />
        </mxCell>
      </root>
    </mxGraphModel>
  </diagram>
</mxfile>
